<?xml version="1.0" encoding="utf-8"?>
<!-- Generator: Adobe Illustrator 25.0.0, SVG Export Plug-In . SVG Version: 6.00 Build 0)  -->
<svg version="1.1" id="Layer_1" xmlns="http://www.w3.org/2000/svg" xmlns:xlink="http://www.w3.org/1999/xlink" x="0px" y="0px"
	 viewBox="0 0 264.9 79.3" style="enable-background:new 0 0 264.9 79.3;" xml:space="preserve">
<style type="text/css">
	.st0{fill:#00BDFF;}
	.st1{fill:#FFFFFF;}
</style>
<g>
	<g>
		<g>
			<path class="st0" d="M79.6,23.6c-6.7,0-10-2.1-10-6.3V2.6c0-0.9,0.3-1.9,2.5-1.9c2.2,0,2.5,1.1,2.5,1.9v14.5
				c0,1.9,1.8,2.8,5.4,2.8h7.4c3.6,0,5.4-0.9,5.4-2.8V2.6c0-0.8,0.3-1.9,2.5-1.9c2.2,0,2.5,1,2.5,1.9v14.7c0,4.2-3.3,6.3-10,6.3
				H79.6z"/>
			<g>
				<path class="st1" d="M49.8,23.6c-6.7,0-10-2-10-6.2V6.8c0-4,3.2-6,9.9-6h12.8c2,0,2.2,1,2.2,1.8c0,1.3-0.7,1.9-2.2,1.9H49.8
					c-3.3,0-5,0.8-5,2.5v10.2c0,1.8,1.8,2.8,5.4,2.8h12.3c1.9,0,2.2,1,2.2,1.8c0,1.3-0.7,1.9-2.2,1.9H49.8z"/>
				<path class="st1" d="M114.7,23.8c-2.3,0-2.5-1.1-2.5-1.9V4.5h-8.4c-2,0-2.2-1-2.2-1.8c0-0.9,0.2-1.8,2.2-1.8h21.7
					c2,0,2.2,1,2.2,1.8c0,1.3-0.7,1.9-2.2,1.9h-8.3v17.3C117.2,22.6,116.9,23.8,114.7,23.8z"/>
				<path class="st1" d="M141.2,23.6c-6.7,0-10-2-10-6.2V6.8c0-4,3.2-6,9.9-6h4.3c2,0,2.2,1,2.2,1.8c0,1.3-0.7,1.9-2.2,1.9h-4.2
					c-3.3,0-5,0.8-5,2.5v3.5h19.1c1.4,0,2,0.5,2,1.7c0,1.2-0.6,1.7-2,1.7h-19.1v3.4c0,1.8,1.8,2.8,5.4,2.8H155c1.9,0,2.2,1,2.2,1.8
					c0,1.3-0.7,1.9-2.2,1.9H141.2z"/>
				<path class="st1" d="M186.2,23.8c-0.7,0-1.1-0.1-2-0.6l-17.1-8.5v7.1c0,0.9-0.3,1.9-2.5,1.9c-2.2,0-2.5-1.1-2.5-1.9V2.2
					c0-0.6,0.2-1.4,1.9-1.4h16.1c7.2,0,10.7,1.9,10.7,5.9v2.2c0,3.8-3.5,5.7-10.7,5.7h-4.9l1.5,0.8l10.7,4.7c1.1,0.5,1.5,1,1.5,1.8
					C188.8,22.3,188.8,23.8,186.2,23.8z M167.8,4.5c-0.4,0-0.8,0.3-0.8,0.7v6.1h13.3c1.3,0,5.4,0,5.4-2.4V6.9c0-1.6-1.8-2.4-5.4-2.4
					H167.8z"/>
				<path class="st1" d="M222.5,23.8c-0.9,0-1.7-0.5-2.3-1.5l-2.9-4.4h-16.3l-2.9,4.4c-0.6,1-1.4,1.5-2.5,1.5
					c-1.8,0-2.7-0.6-2.7-1.9c0-0.5,0.2-0.9,0.7-1.7l12.7-18.2c0.6-0.9,1.5-1.3,2.7-1.3c1.1,0,2,0.4,2.6,1.3l12.7,18.2
					c0.6,0.8,0.7,1.2,0.7,1.7C225.1,22.3,225.1,23.8,222.5,23.8z M203.2,14.6H215l-5.9-8.9L203.2,14.6z"/>
			</g>
		</g>
		<g>
			<path class="st1" d="M23.4,46.7H6l-3.8,6c-0.3,0.4-0.6,0.6-1.1,0.6c-0.6,0-1.1-0.4-1.1-0.9c0-0.2,0-0.3,0.1-0.5l13.4-21.1
				c0.3-0.4,0.7-0.6,1.1-0.6c0.4,0,0.9,0.2,1.1,0.6L29.3,52c0.1,0.2,0.2,0.3,0.2,0.5c0,0.5-0.5,0.9-1.1,0.9c-0.4,0-0.9-0.2-1.1-0.6
				L23.4,46.7z M7.1,45.1h15.3L14.7,33L7.1,45.1z"/>
			<path class="st1" d="M42.1,53.1c-6.2,0-9.4-2.1-9.4-6.2V36.7c0-4.2,3.1-6.2,9.2-6.2h13.8c0.7,0,1.1,0.3,1.1,0.9
				c0,0.6-0.4,0.9-1.1,0.9H42c-4.6,0-6.9,1.5-6.9,4.5v4.2h20.5c0.8,0,1.1,0.3,1.1,0.8c0,0.6-0.4,0.8-1.1,0.8H35.1v4.3
				c0,3,2.3,4.5,7,4.5h13.5c0.8,0,1.2,0.3,1.2,0.9c0,0.6-0.4,0.9-1.2,0.9H42.1z"/>
			<path class="st1" d="M85.5,48.3c0,3.2-3.2,4.8-9.7,4.8H62.5c-0.8,0-1.2-0.3-1.2-0.9c0-0.6,0.4-0.9,1.2-0.9h13.4
				c4.9,0,7.3-1,7.3-3.2v-2.9c0-2.1-2.4-3.1-7.2-3.1h-5.9c-5.8,0-8.7-1.5-8.7-4.6v-2.5c0-3.1,3-4.6,8.9-4.6h13.5
				c0.8,0,1.1,0.3,1.1,0.9c0,0.6-0.4,0.9-1.1,0.9H70.4c-4.4,0-6.6,1-6.6,3v2.4c0,2,2.1,3,6.3,3h5.8c6.4,0,9.6,1.6,9.6,4.8V48.3z"/>
			<path class="st1" d="M99.8,32.2h-9.7c-0.8,0-1.1-0.3-1.1-0.8c0-0.6,0.4-0.9,1.1-0.9h21.7c0.8,0,1.1,0.3,1.1,0.9
				c0,0.6-0.4,0.9-1.1,0.9h-9.7v20.2c0,0.6-0.4,0.9-1.1,0.9c-0.8,0-1.2-0.3-1.2-0.9V32.2z"/>
			<path class="st1" d="M141.2,42.8h-21.6v9.6c0,0.6-0.4,0.9-1.2,0.9c-0.8,0-1.1-0.3-1.1-0.9V31.2c0-0.6,0.4-0.9,1.2-0.9
				c0.7,0,1.1,0.3,1.1,0.9v9.9h21.6v-9.9c0-0.6,0.4-0.9,1.1-0.9c0.8,0,1.2,0.3,1.2,0.9v21.3c0,0.6-0.4,0.9-1.2,0.9
				c-0.8,0-1.2-0.3-1.2-0.9V42.8z"/>
			<path class="st1" d="M158.6,53.1c-6.2,0-9.4-2.1-9.4-6.2V36.7c0-4.2,3.1-6.2,9.2-6.2h14.3c0.7,0,1.1,0.3,1.1,0.9
				c0,0.6-0.4,0.9-1.1,0.9h-14.3c-4.6,0-6.9,1.5-6.9,4.5v4.2h20.5c0.8,0,1.1,0.3,1.1,0.8c0,0.6-0.4,0.8-1.1,0.8h-20.5v4.3
				c0,3,2.3,4.5,7,4.5h13.5c0.8,0,1.2,0.3,1.2,0.9c0,0.6-0.4,0.9-1.2,0.9H158.6z"/>
			<path class="st1" d="M187.8,32.2h-9.7c-0.8,0-1.1-0.3-1.1-0.8c0-0.6,0.4-0.9,1.1-0.9h21.7c0.8,0,1.1,0.3,1.1,0.9
				c0,0.6-0.4,0.9-1.1,0.9h-9.7v20.2c0,0.6-0.4,0.9-1.1,0.9c-0.8,0-1.2-0.3-1.2-0.9V32.2z"/>
			<path class="st1" d="M205.3,31.2c0-0.6,0.4-0.9,1.2-0.9c0.8,0,1.1,0.3,1.1,0.9v21.3c0,0.6-0.4,0.9-1.2,0.9
				c-0.8,0-1.1-0.3-1.1-0.9V31.2z"/>
			<path class="st1" d="M222.7,53.1c-6.2,0-9.4-2.1-9.4-6.2V36.7c0-4.2,3.1-6.2,9.2-6.2h12.7c0.7,0,1.1,0.3,1.1,0.9
				c0,0.6-0.4,0.9-1.1,0.9h-12.6c-4.6,0-6.9,1.5-6.9,4.5v10.1c0,3,2.3,4.5,7,4.5h12.5c0.7,0,1.1,0.3,1.1,0.9c0,0.6-0.4,0.9-1.1,0.9
				H222.7z"/>
			<path class="st1" d="M264.9,48.3c0,3.2-3.2,4.8-9.7,4.8h-13.4c-0.8,0-1.2-0.3-1.2-0.9c0-0.6,0.4-0.9,1.2-0.9h13.4
				c4.9,0,7.3-1,7.3-3.2v-2.9c0-2.1-2.4-3.1-7.2-3.1h-5.9c-5.8,0-8.7-1.5-8.7-4.6v-2.5c0-3.1,3-4.6,8.9-4.6h13.5
				c0.8,0,1.1,0.3,1.1,0.9c0,0.6-0.4,0.9-1.1,0.9h-13.5c-4.4,0-6.6,1-6.6,3v2.4c0,2,2.1,3,6.3,3h5.8c6.4,0,9.6,1.6,9.6,4.8V48.3z"/>
		</g>
	</g>
	<path id="Path_42_1_" class="st1" d="M28.5,67.8v8.8h3.4v-0.9h-2.4v-7.9H28.5z M41.6,76.6h1.1l-3.9-9.2l-4.1,9.2h1.1l1.1-2.5h3.7
		L41.6,76.6z M37.2,73.2l1.5-3.5l1.5,3.5L37.2,73.2z M50.9,69.1c-0.2-0.4-0.5-0.7-0.9-1c-0.4-0.3-0.9-0.4-1.4-0.4
		c-1.4,0-2.5,0.9-2.5,2.3c0,0.5,0.2,1.1,0.6,1.4c0.3,0.3,0.7,0.6,1.2,0.7l0.8,0.4c0.4,0.1,0.7,0.3,1.1,0.6c0.3,0.3,0.5,0.6,0.4,1
		c0,0.9-0.7,1.7-1.6,1.7c-0.1,0-0.1,0-0.2,0c-0.5,0-0.9-0.2-1.3-0.5c-0.3-0.3-0.5-0.7-0.5-1.1l-1,0.3c0.1,0.6,0.4,1.1,0.8,1.6
		c0.5,0.5,1.2,0.7,1.9,0.7c1.6,0,2.8-1.1,2.8-2.7c0-0.6-0.2-1.2-0.6-1.6c-0.4-0.4-0.9-0.6-1.4-0.8l-0.8-0.4
		c-0.3-0.1-0.7-0.3-0.9-0.6c-0.2-0.2-0.3-0.5-0.3-0.8c0-0.8,0.6-1.4,1.5-1.4c0.4,0,0.7,0.1,1,0.3c0.2,0.2,0.4,0.4,0.5,0.7L50.9,69.1
		z M60,67.8h-4.6v8.8H60v-0.9h-3.6v-3.4h3.5v-0.9h-3.5v-2.6H60V67.8z M64.2,67.8v8.8h1v-3.9h0.3l2.7,3.9h1.2l-2.8-3.9
		c1.3-0.1,2.3-1.1,2.2-2.4c0,0,0,0,0,0c0-0.8-0.3-1.5-1-2c-0.7-0.4-1.5-0.5-2.1-0.5L64.2,67.8z M65.2,68.8h0.6
		c0.4,0,0.9,0.1,1.3,0.3c0.5,0.3,0.7,0.8,0.7,1.3c0,1-0.7,1.6-1.9,1.6h-0.6L65.2,68.8z M72.3,78.4l0.6,0.3l1.3-3l-0.9-0.3L72.3,78.4
		z M88.9,69.1c-0.2-0.4-0.5-0.7-0.9-1c-0.4-0.3-0.9-0.4-1.4-0.4c-1.4,0-2.5,0.9-2.5,2.3c0,0.5,0.2,1.1,0.6,1.4
		c0.3,0.3,0.7,0.6,1.2,0.7l0.8,0.4c0.4,0.1,0.7,0.4,1.1,0.6c0.3,0.3,0.5,0.6,0.4,1c0,1-0.9,1.8-1.9,1.7c-0.4,0-0.9-0.2-1.2-0.5
		c-0.3-0.3-0.5-0.7-0.5-1.1l-1,0.3c0.1,0.6,0.4,1.1,0.8,1.6c0.5,0.5,1.2,0.7,1.9,0.7c1.6,0,2.8-1.1,2.8-2.7c0-0.6-0.2-1.2-0.6-1.6
		c-0.4-0.4-0.9-0.6-1.4-0.8l-0.8-0.4c-0.3-0.1-0.7-0.3-0.9-0.6c-0.2-0.2-0.3-0.5-0.3-0.8c0-0.8,0.6-1.4,1.5-1.4c0.4,0,0.7,0.1,1,0.3
		c0.2,0.2,0.4,0.4,0.5,0.7L88.9,69.1z M94.5,67.8h-1v8.8h1v-3.8l0.3-0.3l3.6,4h1.3l-4.3-4.7l4.1-4.1h-1.3l-3.7,3.8V67.8z
		 M103.4,67.8v8.8h1v-8.8H103.4z M110.1,76.6v-6.8l6.9,7.2v-9.2h-1v6.8l-6.9-7.2v9.2H110.1z M133.2,72.8c-0.3,0.4-0.6,0.8-1,1.2
		l-1.8-2.4c0.6-0.5,0.5-0.4,0.7-0.6c0.5-0.4,0.8-1,0.8-1.6c0-1-0.8-1.8-1.7-1.8c0,0-0.1,0-0.1,0c-1-0.1-1.9,0.7-1.9,1.7
		c0,0,0,0.1,0,0.1c0,0.6,0.3,1.1,0.9,1.9c-0.5,0.3-1,0.7-1.5,1.1c-0.5,0.5-0.8,1.1-0.8,1.8c0,1.4,1.1,2.4,2.4,2.4c0,0,0.1,0,0.1,0
		c1,0,2.1-0.6,2.8-1.4l1,1.2h1.2l-1.5-1.9c0.4-0.4,0.8-0.8,1.1-1.3L133.2,72.8z M131.5,74.7c-0.3,0.3-1.3,1.2-2.3,1.2
		c-0.8,0-1.5-0.6-1.6-1.5c0,0,0-0.1,0-0.1c0-0.5,0.2-1,0.6-1.3c0.4-0.3,0.8-0.6,1.2-0.9L131.5,74.7z M129.4,70.4
		c-0.2-0.2-0.3-0.5-0.4-0.9c0-0.5,0.4-1,0.9-1c0,0,0,0,0,0c0.5,0,0.9,0.3,0.9,0.8c0,0,0,0,0,0.1c0,0.3-0.1,0.6-0.6,1l-0.6,0.4
		L129.4,70.4z M143.5,67.8v8.8h1v-8.8H143.5z M150.1,76.6v-6.8L157,77v-9.2h-1v6.8l-6.9-7.2v9.2H150.1z M162.5,67.8v6.4
		c0,0.5,0,1.1-0.3,1.4c-0.2,0.2-0.4,0.3-0.7,0.3c-0.4,0-0.7-0.2-1-0.5l-0.5,0.8c0.4,0.4,1,0.7,1.6,0.6c0.5,0,1-0.2,1.4-0.6
		c0.5-0.6,0.5-1.4,0.5-2.1v-6.3H162.5z M172.7,67.8h-4.6v8.8h4.6v-0.9h-3.6v-3.4h3.5v-0.9h-3.5v-2.6h3.6V67.8z M183.7,68.6
		c-0.7-0.6-1.7-0.9-2.6-0.9c-2.5-0.1-4.5,1.9-4.6,4.3c0,0.1,0,0.2,0,0.2c0,2.5,1.9,4.5,4.4,4.5c0.1,0,0.1,0,0.2,0
		c1,0,1.9-0.3,2.7-0.9v-1.2c-0.3,0.3-0.6,0.5-1,0.7c-0.5,0.3-1.1,0.4-1.6,0.4c-1.9,0-3.5-1.5-3.6-3.5c0,0,0-0.1,0-0.1
		c0-2,1.5-3.7,3.5-3.7c0.5,0,1,0.1,1.5,0.3c0.4,0.2,0.8,0.5,1.1,0.8V68.6z M192.2,68.8v-0.9h-5.3v0.9h2.1v7.9h1v-7.9H192.2z
		 M201.2,76.6h1.1l-3.9-9.2l-4.1,9.2h1.1l1.1-2.5h3.7L201.2,76.6z M196.8,73.2l1.5-3.5l1.5,3.5L196.8,73.2z M206,67.8v8.8h2.2
		c0.8,0.1,1.5-0.1,2.1-0.6c0.6-0.5,0.9-1.2,0.9-1.9c0-1-0.7-2-1.7-2.2c0.6-0.4,0.9-1,0.9-1.7c0-0.7-0.3-1.4-0.8-1.8
		c-0.6-0.5-1.5-0.6-2-0.6L206,67.8z M207,68.8h0.8c0.3,0,1.7,0,1.7,1.5c0,1.4-1.2,1.5-1.7,1.5H207L207,68.8z M207,72.6h1
		c0.5,0,1,0.1,1.5,0.3c0.5,0.3,0.8,0.8,0.8,1.3c0,0.5-0.2,0.9-0.6,1.2c-0.5,0.3-1,0.4-1.5,0.4H207L207,72.6z M215.4,67.8v8.8h3.4
		v-0.9h-2.4v-7.9L215.4,67.8z M227.1,67.8h-4.6v8.8h4.6v-0.9h-3.6v-3.4h3.5v-0.9h-3.5v-2.6h3.6L227.1,67.8z M236.1,69.1
		c-0.2-0.4-0.5-0.7-0.9-1c-0.4-0.3-0.9-0.4-1.4-0.4c-1.4,0-2.5,0.9-2.5,2.3c0,0.5,0.2,1.1,0.6,1.4c0.3,0.3,0.7,0.6,1.2,0.7l0.8,0.4
		c0.4,0.1,0.7,0.4,1.1,0.6c0.3,0.3,0.5,0.6,0.4,1c0,1-0.9,1.8-1.9,1.7c-0.4,0-0.9-0.2-1.2-0.5c-0.3-0.3-0.5-0.7-0.5-1.1l-1,0.3
		c0.1,0.6,0.4,1.1,0.8,1.6c0.5,0.5,1.2,0.7,1.9,0.7c1.6,0,2.8-1.1,2.8-2.7c0-0.6-0.2-1.2-0.6-1.6c-0.4-0.4-0.9-0.6-1.4-0.8l-0.8-0.4
		c-0.3-0.1-0.7-0.3-0.9-0.6c-0.2-0.2-0.3-0.5-0.3-0.8c0-0.8,0.6-1.4,1.5-1.4c0.4,0,0.7,0.1,1,0.3c0.2,0.2,0.4,0.4,0.5,0.7
		L236.1,69.1z"/>
</g>
</svg>
