<?xml version="1.0" encoding="utf-8"?>
<!-- Generator: Adobe Illustrator 26.0.1, SVG Export Plug-In . SVG Version: 6.00 Build 0)  -->
<svg version="1.1" id="Layer_1" xmlns="http://www.w3.org/2000/svg" xmlns:xlink="http://www.w3.org/1999/xlink" x="0px" y="0px"
	 viewBox="0 0 269 80" style="enable-background:new 0 0 269 80;" xml:space="preserve">
<style type="text/css">
	.st0{fill:#04A6DF;}
	.st1{fill:#434345;}
	.st2{fill:#616264;}
	.st3{fill:#3B3B3C;}
</style>
<g>
	<g>
		<g>
			<path class="st0" d="M80.8,23.7c-6.9,0-10.2-2.1-10.2-6.4v-15c0-0.9,0.3-2,2.5-2c2.2,0,2.5,1.1,2.5,2v14.8c0,1.9,1.9,2.8,5.5,2.8
				h7.5c3.7,0,5.5-1,5.5-2.8V2.4c0-0.8,0.3-2,2.5-2c2.2,0,2.5,1.1,2.5,2v15c0,4.3-3.3,6.4-10.2,6.4H80.8z"/>
			<g>
				<path class="st1" d="M50.6,23.7c-6.9,0-10.2-2.1-10.2-6.3V6.6c0-4.1,3.3-6.1,10-6.1h13c2,0,2.2,1,2.2,1.8c0,1.3-0.7,1.9-2.2,1.9
					H50.5c-3.4,0-5.1,0.8-5.1,2.5v10.4c0,1.9,1.9,2.8,5.5,2.8h12.5c2,0,2.2,1,2.2,1.8c0,1.3-0.7,1.9-2.2,1.9H50.6z"/>
				<path class="st1" d="M116.5,23.9c-2.3,0-2.6-1.1-2.6-2V4.3h-8.5c-2,0-2.2-1.1-2.2-1.9c0-0.9,0.3-1.9,2.2-1.9h22
					c2,0,2.2,1,2.2,1.8c0,1.3-0.7,1.9-2.2,1.9H119v17.6C119,22.8,118.7,23.9,116.5,23.9z"/>
				<path class="st1" d="M143.3,23.7c-6.9,0-10.2-2.1-10.2-6.3V6.6c0-4.1,3.3-6.1,10-6.1h4.4c2,0,2.2,1,2.2,1.8
					c0,1.3-0.7,1.9-2.2,1.9h-4.3c-3.4,0-5.1,0.8-5.1,2.5v3.5h19.3c1.4,0,2,0.5,2,1.7c0,1.2-0.6,1.7-2,1.7h-19.3v3.4
					c0,1.9,1.9,2.8,5.5,2.8h13.7c2,0,2.2,1,2.2,1.8c0,1.3-0.7,1.9-2.2,1.9H143.3z"/>
				<path class="st1" d="M189.1,23.9c-0.7,0-1.1-0.1-2-0.6l-17.4-8.6v7.2c0,0.9-0.3,2-2.5,2c-2.2,0-2.5-1.1-2.5-2V2
					c0-0.6,0.2-1.4,1.9-1.4h16.3c7.3,0,10.8,2,10.8,6v2.2c0,3.9-3.5,5.7-10.8,5.7h-4.9l1.5,0.8l10.8,4.7c1.1,0.5,1.5,1,1.5,1.8
					C191.7,22.4,191.7,23.9,189.1,23.9z M170.4,4.3c-0.5,0-0.8,0.3-0.8,0.7v6.2h13.5c1.4,0,5.5,0,5.5-2.5v-2c0-1.6-1.9-2.5-5.5-2.5
					H170.4z"/>
				<path class="st1" d="M225.9,23.9c-0.9,0-1.7-0.5-2.4-1.5l-2.9-4.4H204l-2.9,4.4c-0.7,1-1.5,1.5-2.5,1.5c-1.8,0-2.7-0.6-2.7-1.9
					c0-0.5,0.2-0.9,0.8-1.8l12.9-18.5c0.6-0.9,1.6-1.3,2.7-1.3c1.2,0,2.1,0.5,2.7,1.3l12.9,18.5c0.6,0.8,0.8,1.2,0.8,1.8
					C228.6,22.4,228.6,23.9,225.9,23.9z M206.3,14.6h12l-6-9L206.3,14.6z"/>
			</g>
		</g>
		<g>
			<path class="st2" d="M23.7,47.2H6.1l-3.9,6.1c-0.3,0.4-0.6,0.6-1.1,0.6C0.5,53.9,0,53.5,0,53c0-0.2,0-0.3,0.1-0.5l13.6-21.4
				c0.3-0.4,0.7-0.6,1.2-0.6c0.4,0,0.9,0.2,1.1,0.6l13.7,21.4c0.1,0.2,0.2,0.3,0.2,0.5c0,0.5-0.5,0.9-1.2,0.9
				c-0.4,0-0.9-0.2-1.1-0.6L23.7,47.2z M7.2,45.5h15.5l-7.8-12.3L7.2,45.5z"/>
			<path class="st2" d="M42.7,53.7c-6.3,0-9.5-2.1-9.5-6.3V37.1c0-4.2,3.2-6.3,9.3-6.3h14c0.7,0,1.1,0.3,1.1,0.9s-0.4,0.9-1.1,0.9
				H42.6c-4.7,0-7,1.5-7,4.6v4.2h20.8c0.8,0,1.2,0.3,1.2,0.8c0,0.6-0.4,0.8-1.2,0.8H35.6v4.4c0,3.1,2.3,4.6,7.1,4.6h13.7
				c0.8,0,1.2,0.3,1.2,0.9c0,0.6-0.4,0.9-1.2,0.9H42.7z"/>
			<path class="st2" d="M86.8,48.8c0,3.3-3.3,4.9-9.8,4.9H63.4c-0.8,0-1.2-0.3-1.2-0.9c0-0.6,0.4-0.9,1.2-0.9H77
				c4.9,0,7.4-1.1,7.4-3.2v-2.9c0-2.1-2.4-3.2-7.3-3.2h-6c-5.8,0-8.8-1.6-8.8-4.6v-2.6c0-3.1,3.1-4.7,9.1-4.7h13.7
				c0.8,0,1.2,0.3,1.2,0.9s-0.4,0.9-1.2,0.9H71.5c-4.4,0-6.7,1-6.7,3v2.5c0,2,2.1,3,6.4,3h5.9c6.5,0,9.8,1.6,9.8,4.8V48.8z"/>
			<path class="st2" d="M101.4,32.5h-9.8c-0.8,0-1.2-0.3-1.2-0.8c0-0.6,0.4-0.9,1.2-0.9h22.1c0.8,0,1.2,0.3,1.2,0.9
				s-0.4,0.9-1.2,0.9h-9.8V53c0,0.6-0.4,0.9-1.2,0.9c-0.8,0-1.2-0.3-1.2-0.9V32.5z"/>
			<path class="st2" d="M143.4,43.2h-21.9V53c0,0.6-0.4,0.9-1.2,0.9c-0.8,0-1.2-0.3-1.2-0.9V31.4c0-0.6,0.4-0.9,1.3-0.9
				c0.7,0,1.1,0.3,1.1,0.9v10.1h21.9V31.4c0-0.6,0.4-0.9,1.2-0.9c0.8,0,1.2,0.3,1.2,0.9V53c0,0.6-0.4,0.9-1.2,0.9
				c-0.8,0-1.2-0.3-1.2-0.9V43.2z"/>
			<path class="st2" d="M161.1,53.7c-6.3,0-9.5-2.1-9.5-6.3V37.1c0-4.2,3.2-6.3,9.3-6.3h14.5c0.7,0,1.1,0.3,1.1,0.9
				s-0.4,0.9-1.1,0.9H161c-4.7,0-7,1.5-7,4.6v4.2h20.8c0.8,0,1.2,0.3,1.2,0.8c0,0.6-0.4,0.8-1.2,0.8h-20.8v4.4
				c0,3.1,2.3,4.6,7.1,4.6h13.7c0.8,0,1.2,0.3,1.2,0.9c0,0.6-0.4,0.9-1.2,0.9H161.1z"/>
			<path class="st2" d="M190.7,32.5h-9.8c-0.8,0-1.2-0.3-1.2-0.8c0-0.6,0.4-0.9,1.2-0.9H203c0.8,0,1.2,0.3,1.2,0.9s-0.4,0.9-1.2,0.9
				h-9.8V53c0,0.6-0.4,0.9-1.2,0.9c-0.8,0-1.2-0.3-1.2-0.9V32.5z"/>
			<path class="st2" d="M208.5,31.4c0-0.6,0.4-0.9,1.2-0.9c0.8,0,1.1,0.3,1.1,0.9V53c0,0.6-0.4,0.9-1.2,0.9c-0.8,0-1.2-0.3-1.2-0.9
				V31.4z"/>
			<path class="st2" d="M226.1,53.7c-6.3,0-9.5-2.1-9.5-6.3V37.1c0-4.2,3.2-6.3,9.3-6.3h12.9c0.7,0,1.2,0.3,1.2,0.9
				s-0.4,0.9-1.2,0.9H226c-4.7,0-7,1.5-7,4.6v10.3c0,3.1,2.3,4.6,7.1,4.6h12.7c0.7,0,1.2,0.3,1.2,0.9c0,0.6-0.4,0.9-1.2,0.9H226.1z"
				/>
			<path class="st2" d="M269,48.8c0,3.3-3.3,4.9-9.8,4.9h-13.6c-0.8,0-1.2-0.3-1.2-0.9c0-0.6,0.4-0.9,1.2-0.9h13.6
				c4.9,0,7.4-1.1,7.4-3.2v-2.9c0-2.1-2.4-3.2-7.3-3.2h-6c-5.8,0-8.8-1.6-8.8-4.6v-2.6c0-3.1,3.1-4.7,9.1-4.7h13.7
				c0.8,0,1.2,0.3,1.2,0.9s-0.4,0.9-1.2,0.9h-13.7c-4.4,0-6.7,1-6.7,3v2.5c0,2,2.1,3,6.4,3h5.9c6.5,0,9.8,1.6,9.8,4.8V48.8z"/>
		</g>
	</g>
	<path id="Path_42_1_" class="st3" d="M29,68.6v8.9h3.5v-0.9h-2.5v-8H29z M42.2,77.6h1.1l-4-9.4l-4.1,9.4h1.1l1.1-2.5h3.8L42.2,77.6
		z M37.7,74.1l1.5-3.6l1.5,3.6L37.7,74.1z M51.7,69.9c-0.2-0.4-0.5-0.7-0.9-1c-0.4-0.3-0.9-0.4-1.4-0.4c-1.4,0-2.5,0.9-2.5,2.3
		c0,0.6,0.2,1.1,0.6,1.5c0.4,0.3,0.8,0.6,1.2,0.7l0.8,0.4c0.4,0.1,0.7,0.4,1.1,0.6c0.3,0.3,0.5,0.6,0.4,1c0,0.9-0.7,1.7-1.6,1.8
		c-0.1,0-0.1,0-0.2,0c-0.5,0-0.9-0.2-1.3-0.5c-0.3-0.3-0.5-0.7-0.5-1.1l-1,0.3c0.1,0.6,0.4,1.1,0.8,1.6c0.5,0.5,1.2,0.8,1.9,0.7
		c1.6,0,2.8-1.1,2.8-2.7c0-0.6-0.2-1.2-0.6-1.6C51,73,50.5,72.7,50,72.5l-0.9-0.4c-0.3-0.1-0.7-0.3-0.9-0.6
		c-0.2-0.2-0.4-0.5-0.3-0.8c0-0.8,0.6-1.4,1.5-1.4c0.4,0,0.7,0.1,1,0.3c0.2,0.2,0.4,0.4,0.5,0.7L51.7,69.9z M60.9,68.6h-4.6v8.9h4.6
		v-0.9h-3.6v-3.5h3.5v-0.9h-3.5v-2.7h3.6V68.6z M65.2,68.6v8.9h1v-3.9h0.3l2.7,3.9h1.2l-2.8-4c1.3-0.1,2.3-1.1,2.3-2.4c0,0,0,0,0,0
		c0-0.8-0.3-1.5-1-2c-0.7-0.5-1.6-0.5-2.2-0.5L65.2,68.6z M66.2,69.6h0.6c0.4,0,0.9,0.1,1.3,0.3c0.5,0.3,0.7,0.8,0.7,1.3
		c0,1-0.7,1.6-2,1.6h-0.6L66.2,69.6z M73.4,79.4l0.6,0.3l1.4-3l-0.9-0.3L73.4,79.4z M90.3,69.9c-0.2-0.4-0.5-0.7-0.9-1
		c-0.4-0.3-0.9-0.4-1.4-0.4c-1.4,0-2.5,0.9-2.5,2.3c0,0.6,0.2,1.1,0.6,1.5c0.4,0.3,0.8,0.6,1.2,0.7l0.8,0.4c0.4,0.1,0.7,0.4,1.1,0.6
		c0.3,0.3,0.5,0.6,0.4,1c0,1-0.9,1.8-1.9,1.8c-0.4,0-0.9-0.2-1.2-0.5c-0.3-0.3-0.5-0.7-0.5-1.1l-1,0.3c0.1,0.6,0.4,1.1,0.8,1.6
		c0.5,0.5,1.2,0.8,1.9,0.7c1.6,0,2.8-1.1,2.8-2.7c0-0.6-0.2-1.2-0.6-1.6c-0.4-0.4-0.9-0.7-1.4-0.8l-0.9-0.4
		c-0.3-0.1-0.7-0.3-0.9-0.6c-0.2-0.2-0.4-0.5-0.3-0.8c0-0.8,0.6-1.4,1.5-1.4c0.4,0,0.7,0.1,1,0.3c0.2,0.2,0.4,0.4,0.5,0.7L90.3,69.9
		z M95.9,68.6h-1v8.9h1v-3.8l0.3-0.3l3.7,4.1h1.4l-4.3-4.8l4.2-4.2h-1.3l-3.8,3.8V68.6z M105,68.6v8.9h1v-8.9H105z M111.8,77.6v-6.9
		l7,7.3v-9.3h-1v6.9l-7-7.3v9.3H111.8z M135.2,73.7c-0.3,0.4-0.7,0.8-1,1.2l-1.9-2.4c0.6-0.5,0.5-0.4,0.7-0.6c0.5-0.4,0.8-1,0.8-1.6
		c0-1-0.8-1.8-1.8-1.8c0,0-0.1,0-0.1,0c-1-0.1-1.9,0.7-1.9,1.8c0,0,0,0.1,0,0.1c0,0.6,0.3,1.1,0.9,1.9c-0.5,0.3-1,0.7-1.5,1.1
		c-0.5,0.5-0.8,1.1-0.8,1.8c0,1.4,1.1,2.5,2.5,2.5c0,0,0.1,0,0.1,0c1,0,2.1-0.6,2.9-1.4l1,1.2h1.2l-1.5-1.9c0.4-0.4,0.8-0.9,1.1-1.3
		L135.2,73.7z M133.5,75.6c-0.3,0.3-1.3,1.2-2.3,1.2c-0.9,0-1.6-0.7-1.6-1.5c0,0,0-0.1,0-0.1c0-0.5,0.2-1,0.6-1.3
		c0.4-0.3,0.8-0.7,1.3-0.9L133.5,75.6z M131.4,71.2c-0.2-0.2-0.3-0.6-0.4-0.9c0-0.5,0.4-1,1-1c0,0,0,0,0,0c0.5,0,0.9,0.3,1,0.9
		c0,0,0,0,0,0.1c0,0.3-0.1,0.6-0.6,1l-0.6,0.5L131.4,71.2z M145.7,68.6v8.9h1v-8.9H145.7z M152.4,77.6v-6.9l7,7.3v-9.3h-1v6.9
		l-7-7.3v9.3H152.4z M165,68.6v6.5c0,0.5,0,1.1-0.3,1.4c-0.2,0.2-0.4,0.3-0.7,0.3c-0.4,0-0.8-0.2-1-0.5l-0.5,0.8
		c0.4,0.4,1,0.7,1.6,0.7c0.5,0,1.1-0.2,1.4-0.6c0.5-0.6,0.5-1.4,0.5-2.1v-6.4H165z M175.4,68.6h-4.6v8.9h4.6v-0.9h-3.6v-3.5h3.5
		v-0.9h-3.5v-2.7h3.6V68.6z M186.5,69.4c-0.8-0.6-1.7-0.9-2.6-0.9c-2.5-0.1-4.6,1.9-4.7,4.4c0,0.1,0,0.2,0,0.2
		c0,2.5,1.9,4.6,4.4,4.6c0.1,0,0.1,0,0.2,0c1,0,1.9-0.3,2.7-0.9v-1.2c-0.3,0.3-0.7,0.6-1,0.8c-0.5,0.3-1.1,0.4-1.7,0.4
		c-2,0-3.6-1.6-3.6-3.5c0,0,0-0.1,0-0.1c0-2.1,1.5-3.7,3.6-3.7c0.5,0,1.1,0.1,1.5,0.3c0.4,0.2,0.8,0.5,1.2,0.8V69.4z M195.2,69.6
		v-0.9h-5.3v0.9h2.2v8h1v-8H195.2z M204.3,77.6h1.1l-4-9.4l-4.1,9.4h1.1l1.1-2.5h3.8L204.3,77.6z M199.9,74.1l1.5-3.6l1.5,3.6
		L199.9,74.1z M209.2,68.6v8.9h2.2c0.8,0.1,1.5-0.1,2.1-0.6c0.6-0.5,0.9-1.2,0.9-1.9c0-1.1-0.7-2-1.7-2.3c0.6-0.4,0.9-1.1,0.9-1.8
		c0-0.7-0.3-1.4-0.8-1.8c-0.7-0.5-1.6-0.6-2.1-0.6L209.2,68.6z M210.2,69.6h0.8c0.3,0,1.7,0,1.7,1.5c0,1.4-1.2,1.5-1.8,1.5h-0.8
		L210.2,69.6z M210.2,73.4h1c0.5,0,1,0.1,1.5,0.3c0.5,0.3,0.8,0.8,0.8,1.3c0,0.5-0.2,0.9-0.6,1.2c-0.5,0.3-1,0.4-1.6,0.4h-1.1
		L210.2,73.4z M218.7,68.6v8.9h3.5v-0.9h-2.5v-8L218.7,68.6z M230.6,68.6H226v8.9h4.6v-0.9H227v-3.5h3.5v-0.9H227v-2.7h3.6
		L230.6,68.6z M239.7,69.9c-0.2-0.4-0.5-0.7-0.9-1c-0.4-0.3-0.9-0.4-1.4-0.4c-1.4,0-2.5,0.9-2.5,2.3c0,0.6,0.2,1.1,0.6,1.5
		c0.4,0.3,0.8,0.6,1.2,0.7l0.8,0.4c0.4,0.1,0.7,0.4,1.1,0.6c0.3,0.3,0.5,0.6,0.4,1c0,1-0.9,1.8-1.9,1.8c-0.4,0-0.9-0.2-1.2-0.5
		c-0.3-0.3-0.5-0.7-0.5-1.1l-1,0.3c0.1,0.6,0.4,1.1,0.8,1.6c0.5,0.5,1.2,0.8,1.9,0.7c1.6,0,2.8-1.1,2.8-2.7c0-0.6-0.2-1.2-0.6-1.6
		c-0.4-0.4-0.9-0.7-1.4-0.8l-0.9-0.4c-0.3-0.1-0.7-0.3-0.9-0.6c-0.2-0.2-0.4-0.5-0.3-0.8c0-0.8,0.6-1.4,1.5-1.4c0.4,0,0.7,0.1,1,0.3
		c0.2,0.2,0.4,0.4,0.5,0.7L239.7,69.9z"/>
</g>
</svg>
