<?xml version="1.0" encoding="utf-8"?>
<!-- Generator: Adobe Illustrator 26.3.1, SVG Export Plug-In . SVG Version: 6.00 Build 0)  -->
<svg version="1.1" id="Layer_1" xmlns="http://www.w3.org/2000/svg" xmlns:xlink="http://www.w3.org/1999/xlink" x="0px" y="0px"
	 viewBox="0 0 188 80" style="enable-background:new 0 0 188 80;" xml:space="preserve">
<g>
	<path d="M35.4,34.1c-0.2,0-4.8,0.4-9.8,1.2c-4.1,0.6-6.3,0.5-7.8,0.3c-3.1-0.5-5.3-1.8-6-3.8C9.2,25,24,12,44.7,2.7
		c2.1-1,4.3-1.8,6.4-2.7c-3.8,1.2-7.6,2.6-11.4,4.1C16.5,13.6-0.2,26.6,2.4,33.2c1.4,3.3,7.4,4.4,16,3.4c0,0,0,0,0.1,0
		c5-0.5,11-1.7,14.7-1.4c3.6,0.4,6.1,1.7,6.9,3.9C42.6,45.9,27.9,59,7.2,68.2c-2.2,1-4.3,1.9-6.4,2.7c3.8-1.2,7.6-2.6,11.4-4.1
		c23.3-9.5,39.9-22.5,37.3-29.1C48.2,34.6,43,33.5,35.4,34.1L35.4,34.1z"/>
	<g>
		<path d="M102.3,36.3c1.2-6.7-1.7-10.1-7.1-10.1c-5.1,0-9.4,3.2-11,9.6L81,53.5h-3.8l3.1-17.2c1.2-6.7-1.7-10.1-7-10.1
			c-5.4,0-9.9,3.5-11.2,10.6l-2.9,16.7h-3.9l5.3-30.1h3.9l-0.9,5.2c2.6-3.9,6.8-5.8,11.1-5.8c5.1,0,8.9,2.4,9.7,7.4
			c2.5-4.9,7.4-7.4,12.2-7.4c6.7,0,11.2,4.2,9.6,13L103,53.5h-3.8L102.3,36.3z"/>
		<path d="M129.5,23c6.1,0,9.6,3.2,10.6,7l1.2-6.6h3.9l-5.3,30.1H136l1.2-6.7c-2.4,3.9-7.2,7.1-13.2,7.1c-8.2,0-13.3-6.1-11.6-15.5
			C114,29,121.3,23,129.5,23z M129.6,26.3c-6.3,0-11.9,4.4-13.3,12.1c-1.4,7.6,2.7,12.2,9,12.2c6.2,0,12-4.6,13.3-12.1
			C140,31,135.8,26.3,129.6,26.3z"/>
		<path d="M148.7,53.5l5.3-30.1h3.9l-1,6c2.4-4.1,6.2-6.6,11.5-6.6l-0.7,4h-1.1c-4.7,0-9.2,2-10.8,8.8l-3.1,17.8H148.7z"/>
		<path d="M174.5,26.7h-4.2l0.6-3.2h4.2l1.3-7.5h3.9l-1.3,7.5h8.3l-0.6,3.2h-8.3L175,45.3c-0.6,3.7,0.4,4.8,4,4.8h3.5l-0.6,3.3h-4.1
			c-5.2,0-7.7-2.1-6.6-8.2L174.5,26.7z"/>
	</g>
	<g>
		<g>
			<path d="M51,68.2c2.3,0,3.7,1.2,4.1,2.7l0.4-2.5h1.5l-2,11.5h-1.5l0.4-2.5c-0.9,1.5-2.7,2.7-5,2.7c-3.1,0-5.1-2.3-4.4-5.9
				C45,70.5,47.8,68.2,51,68.2z M51,69.5c-2.4,0-4.6,1.7-5.1,4.6c-0.5,2.9,1,4.7,3.4,4.7c2.4,0,4.6-1.8,5.1-4.6
				C55,71.2,53.4,69.5,51,69.5z"/>
			<path d="M66.6,80c-3.3,0-5.3-2.3-4.6-5.9c0.7-3.7,3.4-5.9,6.7-5.9c3.4,0,5,2.4,4.5,5.3c-0.1,0.4-0.1,0.7-0.3,1.1h-9.5
				c-0.4,2.7,1.3,4.1,3.4,4.1c2,0,3.5-1,4.1-2.6h1.6C71.6,78.4,69.5,80,66.6,80z M63.6,73.5h8.1c0.5-2.7-1.1-4.1-3.3-4.1
				C66.3,69.4,64.2,70.8,63.6,73.5z"/>
			<path d="M81.9,80c-2.4,0-4.1-1.2-3.9-3.4h1.4c-0.1,1.3,0.8,2.2,2.6,2.2c1.8,0,2.9-0.8,2.9-2c0-2.6-5.9-1.6-5.9-5.4
				c0-1.9,1.8-3.2,4.2-3.2c2.4,0,4.1,1.4,3.9,3.5h-1.4c0.2-1.4-1-2.3-2.6-2.3c-1.5,0-2.6,0.8-2.6,2c0,2.8,5.9,1.8,5.9,5.4
				C86.4,78.8,84.5,80,81.9,80z"/>
			<path d="M94.4,69.6h-1.6l0.2-1.2h1.6l0.5-2.9h1.5l-0.5,2.9h3.2l-0.2,1.2h-3.2l-1.3,7.1c-0.2,1.4,0.2,1.9,1.5,1.9h1.3l-0.2,1.3
				h-1.6c-2,0-2.9-0.8-2.5-3.1L94.4,69.6z"/>
			<path d="M105.8,64.3h1.5l-1.1,6c1-1.4,2.6-2.2,4.4-2.2c2.5,0,4.3,1.6,3.7,5l-1.2,6.7h-1.5l1.2-6.6c0.4-2.5-0.7-3.9-2.8-3.9
				c-2.1,0-3.9,1.3-4.4,4.1v0l-1.1,6.3H103L105.8,64.3z"/>
			<path d="M124.7,80c-3.3,0-5.3-2.3-4.6-5.9c0.7-3.7,3.4-5.9,6.7-5.9c3.4,0,5,2.4,4.5,5.3c-0.1,0.4-0.1,0.7-0.3,1.1h-9.5
				c-0.4,2.7,1.3,4.1,3.4,4.1c2,0,3.5-1,4.1-2.6h1.6C129.7,78.4,127.6,80,124.7,80z M121.7,73.5h8.1c0.5-2.7-1.1-4.1-3.3-4.1
				C124.4,69.4,122.3,70.8,121.7,73.5z"/>
			<path d="M138.4,69.6h-1.6l0.2-1.2h1.6l0.5-2.9h1.5l-0.5,2.9h3.2l-0.2,1.2h-3.2l-1.3,7.1c-0.2,1.4,0.2,1.9,1.5,1.9h1.3l-0.2,1.3
				h-1.6c-2,0-2.9-0.8-2.5-3.1L138.4,69.6z"/>
			<path d="M149.1,68.3h1.5l-2,11.5H147L149.1,68.3z M149.3,65.1c0.1-0.6,0.7-1.1,1.3-1.1c0.6,0,1,0.4,0.9,1.1
				c-0.1,0.6-0.7,1.1-1.2,1.1C149.6,66.2,149.2,65.7,149.3,65.1z"/>
			<path d="M162.2,68.2c2.9,0,4.5,1.5,4.6,3.9h-1.6c-0.1-1.6-1.3-2.7-3.2-2.7c-2.3,0-4.4,1.5-4.9,4.7c-0.5,3.1,1,4.7,3.2,4.7
				c2,0,3.5-1,4.2-2.7h1.6c-0.9,2.3-3.1,3.9-6,3.9c-3.2,0-5.2-2.3-4.5-5.9C156.2,70.4,159,68.2,162.2,68.2z"/>
			<path d="M175.3,80c-2.4,0-4.1-1.2-3.9-3.4h1.4c-0.1,1.3,0.8,2.2,2.6,2.2s2.9-0.8,2.9-2c0-2.6-5.9-1.6-5.9-5.4
				c0-1.9,1.8-3.2,4.2-3.2c2.4,0,4.1,1.4,3.9,3.5h-1.4c0.2-1.4-1-2.3-2.6-2.3c-1.5,0-2.6,0.8-2.6,2c0,2.8,5.9,1.8,5.9,5.4
				C179.8,78.8,177.9,80,175.3,80z"/>
		</g>
	</g>
</g>
</svg>
